<mxfile host="app.diagrams.net" modified="2023-09-06T13:08:14.831Z" agent="Mozilla/5.0 (Windows NT 10.0; Win64; x64) AppleWebKit/537.36 (KHTML, like Gecko) Chrome/116.0.0.0 Safari/537.36 Edg/116.0.1938.69" etag="f7Fju86ZBOlztx0lZI1Q" version="21.7.2" type="device">
  <diagram name="PÃ¡gina-1" id="NJlv5iVdqIxIfpM8fTj7">
    <mxGraphModel dx="118" dy="60" grid="1" gridSize="10" guides="1" tooltips="1" connect="1" arrows="1" fold="1" page="1" pageScale="1" pageWidth="827" pageHeight="1169" math="0" shadow="0">
      <root>
        <mxCell id="0" />
        <mxCell id="1" parent="0" />
        <mxCell id="Rwa2Io4eE5qMUJGgt9bu-1" value="Pelicula" style="rounded=0;whiteSpace=wrap;html=1;" vertex="1" parent="1">
          <mxGeometry x="280" y="60" width="80" height="40" as="geometry" />
        </mxCell>
        <mxCell id="Rwa2Io4eE5qMUJGgt9bu-5" style="edgeStyle=orthogonalEdgeStyle;rounded=0;orthogonalLoop=1;jettySize=auto;html=1;strokeColor=default;endArrow=none;endFill=0;" edge="1" parent="1" source="Rwa2Io4eE5qMUJGgt9bu-3" target="Rwa2Io4eE5qMUJGgt9bu-1">
          <mxGeometry relative="1" as="geometry" />
        </mxCell>
        <mxCell id="Rwa2Io4eE5qMUJGgt9bu-3" value="ID_P" style="ellipse;whiteSpace=wrap;html=1;" vertex="1" parent="1">
          <mxGeometry x="120" y="70" width="70" height="40" as="geometry" />
        </mxCell>
        <mxCell id="Rwa2Io4eE5qMUJGgt9bu-7" style="edgeStyle=orthogonalEdgeStyle;rounded=0;orthogonalLoop=1;jettySize=auto;html=1;endArrow=none;endFill=0;" edge="1" parent="1" source="Rwa2Io4eE5qMUJGgt9bu-6">
          <mxGeometry relative="1" as="geometry">
            <mxPoint x="290" y="100" as="targetPoint" />
          </mxGeometry>
        </mxCell>
        <mxCell id="Rwa2Io4eE5qMUJGgt9bu-6" value="Genero" style="ellipse;whiteSpace=wrap;html=1;" vertex="1" parent="1">
          <mxGeometry x="190" y="120" width="70" height="40" as="geometry" />
        </mxCell>
        <mxCell id="Rwa2Io4eE5qMUJGgt9bu-9" style="edgeStyle=orthogonalEdgeStyle;rounded=0;orthogonalLoop=1;jettySize=auto;html=1;entryX=0.75;entryY=1;entryDx=0;entryDy=0;endArrow=none;endFill=0;" edge="1" parent="1" source="Rwa2Io4eE5qMUJGgt9bu-8" target="Rwa2Io4eE5qMUJGgt9bu-1">
          <mxGeometry relative="1" as="geometry" />
        </mxCell>
        <mxCell id="Rwa2Io4eE5qMUJGgt9bu-8" value="Actor" style="ellipse;whiteSpace=wrap;html=1;" vertex="1" parent="1">
          <mxGeometry x="320" y="140" width="70" height="40" as="geometry" />
        </mxCell>
        <mxCell id="Rwa2Io4eE5qMUJGgt9bu-12" style="edgeStyle=orthogonalEdgeStyle;rounded=0;orthogonalLoop=1;jettySize=auto;html=1;entryX=0.978;entryY=0.672;entryDx=0;entryDy=0;entryPerimeter=0;endArrow=none;endFill=0;" edge="1" parent="1" source="Rwa2Io4eE5qMUJGgt9bu-11" target="Rwa2Io4eE5qMUJGgt9bu-1">
          <mxGeometry relative="1" as="geometry" />
        </mxCell>
        <mxCell id="Rwa2Io4eE5qMUJGgt9bu-11" value="Pelicula" style="ellipse;whiteSpace=wrap;html=1;" vertex="1" parent="1">
          <mxGeometry x="400" y="70" width="70" height="40" as="geometry" />
        </mxCell>
      </root>
    </mxGraphModel>
  </diagram>
</mxfile>
